Coordinates
version=1
nRows=6
nColumns=36
inDegrees=yes

Units are S.I. units (second, meters, Newtons, ...)
If the header above contains a line with 'inDegrees', this indicates whether rotational values are in degrees (yes) or radians (no).

endheader
time	pelvis_tilt	pelvis_list	pelvis_rotation	pelvis_tx	pelvis_ty	pelvis_tz	hip_flexion_r	hip_adduction_r	hip_rotation_r	knee_angle_r	knee_angle_r_beta	ankle_angle_r	subtalar_angle_r	mtp_angle_r	hip_flexion_l	hip_adduction_l	hip_rotation_l	knee_angle_l	knee_angle_l_beta	ankle_angle_l	subtalar_angle_l	mtp_angle_l	lumbar_extension	lumbar_bending	lumbar_rotation	arm_flex_r	arm_add_r	arm_rot_r	elbow_flex_r	pro_sup_r	arm_flex_l	arm_add_l	arm_rot_l	elbow_flex_l	pro_sup_l
      1.48750000	    -15.10450736	      2.42716196	      0.45713993	     -0.96326430	      1.19963934	     -0.07630946	     53.43988126	     -8.41789865	     -1.35776310	     80.95964401	      1.41301235	     40.19361244	    -10.44910057	     -7.49999987	     53.00615223	      0.46582970	     -5.84549595	     79.66855637	      1.39047862	     32.03695261	    -22.84828651	     -7.49999987	    -47.71955602	      3.91590138	      3.08170121	     36.52479404	    -20.83038776	     19.41292617	     30.01594298	     74.33981619	     39.96706265	    -10.77106347	     38.61391509	     38.05013853	     72.83197550
      1.49166670	    -15.28957473	      2.42047121	      0.64962342	     -0.96233045	      1.19646008	     -0.07777338	     53.40269607	     -8.68369469	     -1.49918491	     80.98270743	      1.41341488	     40.81824703	    -10.12033558	     -7.49999987	     53.31943891	      0.80859333	     -5.64348576	     80.00724760	      1.39638990	     31.77550443	    -23.70482248	     -7.49999987	    -47.50559307	      4.23910392	      3.22695012	     38.06889432	    -21.03034493	     18.94852666	     31.28741060	     73.23619544	     41.51314069	    -10.25332992	     38.38599924	     39.69585319	     71.99971829
      1.49583330	    -15.65492072	      2.41042454	      0.80279779	     -0.96504875	      1.19591933	     -0.07524343	     53.92756586	     -8.60108354	     -1.50366554	     81.20462116	      1.41728801	     40.64033113	    -10.46667364	     -7.49999987	     53.92533737	      1.04420991	     -5.25458411	     80.28230321	      1.40119052	     31.87712943	    -23.41538453	     -7.49999987	    -47.26926082	      4.33626504	      3.49117829	     39.81917479	    -20.99371151	     17.36558743	     32.88815006	     77.71427666	     43.66690681	     -9.80073467	     37.94050913	     40.87770262	     77.51742126
      1.50000000	    -15.95485002	      2.37502464	      1.00845929	     -0.96136973	      1.19288674	     -0.07357727	     54.16507590	     -8.51892687	     -1.58719791	     81.37763221	      1.42030762	     40.88369030	    -10.40764595	     -7.49999987	     54.55013468	      1.31640914	     -4.67186308	     80.76808535	      1.40966902	     31.98344695	    -23.34549279	     -7.49999987	    -46.85027580	      4.30539546	      3.51654999	     41.67221554	    -20.60377025	     17.14724853	     33.54703352	     77.72447792	     45.66042886	     -9.42554863	     37.66244554	     41.47369184	     77.54389650
      1.50416670	    -16.35496450	      1.91478080	      1.30170390	     -0.95920246	      1.19499073	     -0.07032548	     54.12288198	     -8.03968729	     -2.23486267	     81.07479442	      1.41502210	     41.17438065	    -10.43236224	     -7.49999987	     55.23895369	      1.21960437	     -3.75888499	     81.37671357	      1.42029159	     31.50628765	    -23.78184702	     -7.49999987	    -46.53270015	      4.74378893	      3.63162825	     43.51714322	    -19.93295230	     16.45864705	     34.75074891	     77.79952428	     47.49241041	     -9.33850236	     37.28945784	     42.81955029	     77.72023167
      1.50833330	    -16.72420228	      1.81060169	      1.40028871	     -0.95805316	      1.19517607	     -0.06569328	     54.31517107	     -7.60882734	     -2.49613297	     80.94069563	      1.41268164	     41.24826191	    -10.72986644	     -7.49999987	     55.29090938	      0.81274255	     -3.38173167	     80.96473815	      1.41310126	     31.46484490	    -23.35360304	     -7.49999987	    -46.25249824	      4.54176607	      3.75077057	     45.12923701	    -19.34591856	     16.04320015	     36.58318103	     76.78724684	     49.43446845	     -9.26575982	     36.69357626	     44.44995390	     76.72148875
